<?xml version="1.0" encoding="UTF-8"?>
<svg width="23px" height="40px" viewBox="0 0 23 40" version="1.1" xmlns="http://www.w3.org/2000/svg" xmlns:xlink="http://www.w3.org/1999/xlink">
    <title>Fill 1</title>
    <g id="Icons" stroke="none" stroke-width="1" fill="none" fill-rule="evenodd">
        <g id="Icons/40/Right-Arrow/Casque" fill="#FFCC00">
            <path d="M19.5974521,40 C18.9597581,40.0008244 18.3461908,39.7529016 17.8881992,39.3094693 L1.46497938,23.4731941 C-0.434791273,21.6470515 -0.494692078,18.6270526 1.33103452,16.726866 C1.37471219,16.6815244 1.4196378,16.6365988 1.46497938,16.5929211 L17.8881992,0.756645941 C18.829973,-0.224229732 20.3886419,-0.255428068 21.3699335,0.686345691 C22.3508092,1.62853543 22.3820075,3.18720428 21.4402338,4.16807995 C21.397388,4.21258958 21.3532944,4.25543529 21.3071209,4.29661709 L4.9924712,20.0330576 L21.3071209,35.7694981 C22.2859166,36.7108559 22.316283,38.2670289 21.3749252,39.2458247 C20.910278,39.7291909 20.2680083,40.0016563 19.5974521,40" id="Fill-1" transform="translate(11.063290, 20.000000) scale(-1, 1) translate(-11.063290, -20.000000) "></path>
        </g>
    </g>
</svg>